<?xml version="1.0" standalone="no"?>
<!DOCTYPE svg PUBLIC "-//W3C//DTD SVG 20010904//EN"
 "http://www.w3.org/TR/2001/REC-SVG-20010904/DTD/svg10.dtd">
<svg version="1.0" xmlns="http://www.w3.org/2000/svg"
 width="64.000000pt" height="64.000000pt" viewBox="0 0 64.000000 64.000000"
 preserveAspectRatio="xMidYMid meet">
<metadata>
Created by potrace 1.10, written by Peter Selinger 2001-2011
</metadata>
<g transform="translate(0.000000,64.000000) scale(0.100000,-0.100000)"
fill="#000000" stroke="none">
<path d="M380 560 c-27 -27 -25 -56 6 -86 42 -43 104 -15 104 46 0 55 -70 80
-110 40z m77 -26 c8 -20 -8 -48 -30 -52 -22 -5 -42 35 -26 54 16 19 48 18 56
-2z"/>
<path d="M272 410 c-74 -34 -202 -173 -180 -196 7 -6 442 -125 468 -128 22 -2
15 110 -10 178 -54 143 -160 199 -278 146z m183 -50 c19 -18 43 -52 53 -74 21
-43 47 -154 39 -162 -3 -3 -90 18 -193 46 -235 63 -224 60 -224 69 0 19 87
105 134 132 43 25 59 29 104 26 43 -3 59 -10 87 -37z"/>
<path d="M293 353 c-34 -17 -48 -52 -15 -38 9 4 33 13 52 20 19 7 36 18 38 24
5 16 -38 12 -75 -6z"/>
<path d="M202 288 c-16 -16 -15 -38 2 -38 17 0 30 30 18 42 -4 4 -13 3 -20 -4z"/>
<path d="M14 31 c-17 -18 33 -21 307 -21 209 0 310 3 307 10 -3 10 -604 20
-614 11z"/>
</g>
</svg>
