<svg version="1.1" xmlns="http://www.w3.org/2000/svg" viewBox="-231.4239990234375 -1044.480029296875 3345.40830078125 3607.2961364746093"><desc>Created with Snap</desc><defs></defs><g><rect x="-231.4239990234375" y="-1044.480029296875" width="3345.40830078125" height="3607.2961364746093" fill="#d90429" style=""></rect><g transform="matrix(28.6933,0,0,28.6933,5.1787,-108.7146)"><g><g><path d="M56.9,43.6c6.2,1.8,11.6,6.2,14.7,11.9c0.5,1,1.5,1.5,2.5,1.5c0.5,0,0.9-0.1,1.4-0.4c1.4-0.8,1.9-2.5,1.1-3.9     c-3.8-7.1-10.5-12.4-18.1-14.6C57,37.6,55.4,38.5,55,40C54.5,41.5,55.4,43.1,56.9,43.6z" fill="#ffffff" style=""></path><path d="M90.7,64.6c-1.1-18.1-13.9-33.2-31.5-37.2v-0.6c0-2.5-1-4.8-2.7-6.5c-1.7-1.8-4.1-2.7-6.5-2.7c-5.1,0-9.2,4.1-9.2,9.2     v0.6c-17.6,4-30.4,19.1-31.5,37.2c-3.9,1-6.8,4.5-6.8,8.7c0,5,4.1,9.1,9.1,9.1h76.9c5,0,9.1-4.1,9.1-9.1     C97.5,69.2,94.6,65.6,90.7,64.6z M44.1,32.6c1.4-0.2,2.4-1.4,2.4-2.8v-3c0-1.9,1.6-3.5,3.5-3.5c0.9,0,1.8,0.4,2.5,1     c0.7,0.7,1,1.5,1,2.5v3c0,1.4,1,2.6,2.4,2.8c16,2.7,27.8,15.8,29.1,31.7H15C16.3,48.4,28.1,35.3,44.1,32.6z M88.4,76.7H11.6     c-1.8,0-3.3-1.5-3.3-3.3S9.7,70,11.6,70h76.9c1.8,0,3.3,1.5,3.3,3.3S90.3,76.7,88.4,76.7z" fill="#ffffff" style=""></path></g></g><desc>Created with Snap</desc><defs></defs></g><g><g transform="matrix(1.024,0,0,-1.024,0,0)"><path d="M218 -87Q166 -87 146 -66Q127 -45 126 -12Q126 17 137 57Q149 98 162 135Q183 198 208 266Q234 334 261 401Q288 468 313 530Q339 592 362 643Q294 642 245 639Q197 637 157 633Q118 629 74 621Q78 660 111 681Q145 703 202 711Q259 720 332 720Q381 720 422 717Q463 714 500 710Q537 707 573 705Q604 690 614 686Q624 682 619 682Q595 664 560 655Q526 647 489 645Q452 643 418 643Q375 538 334 412Q294 287 257 154Q244 104 234 67Q225 31 220 1Q215 -29 215 -60Q215 -65 215 -72Q216 -78 218 -87ZM576 -47Q544 -47 520 -26Q497 -4 497 39Q497 75 513 116Q529 157 557 197Q585 237 621 270Q657 303 697 323Q738 343 778 343Q820 343 848 321Q877 300 877 265Q877 238 860 227Q843 216 818 220Q820 228 821 237Q823 247 823 256Q823 277 814 293Q805 309 779 309Q751 309 722 290Q693 271 666 240Q639 209 618 172Q597 135 585 99Q573 63 573 35Q573 1 598 1Q621 1 648 23Q676 45 704 79Q733 113 759 148Q785 184 804 211Q808 216 811 216Q816 215 827 211Q838 208 847 202Q856 196 856 186Q856 176 847 160Q838 145 827 126Q816 107 807 88Q798 69 798 51Q798 38 805 25Q813 13 830 13Q855 13 898 49Q942 86 987 169L1003 153Q980 99 946 58Q913 17 876 -7Q839 -30 802 -30Q762 -30 743 -6Q724 19 722 48Q722 51 722 54Q723 58 723 61Q682 10 648 -19Q614 -47 576 -47ZM1077 -51Q1028 -51 998 -31Q969 -10 956 21Q944 52 944 84Q944 113 952 129Q960 145 972 153Q984 161 994 165Q1005 169 1009 173Q1036 202 1062 237Q1088 272 1107 313L1107 324Q1107 363 1120 379Q1133 395 1150 395Q1161 395 1166 389Q1171 384 1171 377Q1171 372 1168 363Q1166 354 1166 339Q1166 308 1180 269Q1194 231 1208 188Q1222 145 1222 100Q1222 87 1221 76Q1220 66 1217 56Q1250 63 1280 89Q1310 116 1338 169L1349 160Q1330 103 1293 70Q1257 38 1210 31Q1194 -11 1158 -31Q1122 -51 1077 -51ZM1073 -10Q1090 -10 1108 -1Q1126 9 1137 32Q1095 41 1062 64Q1030 88 1012 113Q996 110 996 83Q996 49 1015 19Q1035 -10 1073 -10ZM1144 58Q1146 66 1146 76Q1147 86 1147 94Q1146 140 1135 184Q1124 229 1114 274Q1094 240 1069 204Q1045 169 1024 147Q1039 118 1070 93Q1102 68 1144 58ZM1402 -46Q1358 -46 1332 -21Q1307 5 1307 57Q1307 99 1323 161Q1339 223 1363 289Q1355 291 1345 292Q1336 294 1328 298L1328 325Q1341 323 1351 322Q1362 321 1374 320Q1395 373 1419 423Q1444 473 1468 512Q1492 551 1514 574Q1536 597 1552 597Q1562 597 1570 590Q1578 583 1578 570Q1578 551 1557 513Q1537 476 1506 425Q1476 375 1448 317Q1456 317 1464 317Q1473 317 1481 317Q1521 317 1557 318Q1593 320 1630 324L1630 296Q1575 290 1529 287Q1484 284 1445 284Q1442 284 1438 284Q1435 284 1432 284Q1410 233 1394 180Q1379 127 1379 77Q1379 35 1392 17Q1405 0 1434 0Q1484 0 1536 46Q1588 92 1626 170L1640 160Q1615 102 1577 55Q1539 8 1494 -19Q1450 -46 1402 -46ZM1713 -44Q1650 -44 1617 -10Q1584 24 1584 75Q1584 120 1606 169Q1629 219 1667 262Q1705 306 1750 333Q1796 361 1841 361Q1866 361 1888 348Q1911 335 1911 296Q1911 258 1888 224Q1866 191 1829 165Q1793 139 1748 122Q1704 106 1660 102Q1659 96 1658 90Q1657 84 1657 74Q1657 66 1659 52Q1662 39 1669 25Q1677 12 1693 3Q1709 -6 1735 -6Q1777 -6 1819 18Q1862 42 1899 81Q1936 121 1961 169L1978 155Q1951 95 1909 50Q1867 6 1816 -19Q1766 -44 1713 -44ZM1669 133Q1695 138 1728 153Q1761 169 1791 192Q1821 216 1840 244Q1860 272 1860 301Q1860 312 1856 317Q1852 322 1842 322Q1818 322 1792 304Q1767 287 1742 259Q1718 232 1699 198Q1680 165 1669 133ZM1999 -10Q1979 -10 1969 0Q1959 11 1959 24Q1959 35 1969 46Q1979 58 1993 65Q2008 73 2021 73Q2032 73 2041 67Q2051 61 2051 45Q2051 36 2044 23Q2038 10 2026 0Q2015 -10 1999 -10ZM2248 -29Q2206 -29 2185 -4Q2164 22 2164 59Q2164 82 2172 117Q2180 152 2194 190Q2209 229 2228 263Q2247 297 2268 318Q2290 340 2311 340Q2323 340 2331 333Q2339 326 2339 313Q2339 300 2323 273Q2308 247 2287 213Q2266 179 2250 142Q2235 105 2235 71Q2235 38 2247 27Q2259 16 2282 16Q2316 16 2355 50Q2395 84 2438 169L2451 155Q2418 67 2363 19Q2309 -29 2248 -29ZM2367 425Q2349 425 2334 433Q2320 442 2320 461Q2320 485 2345 501Q2371 518 2398 518Q2415 518 2426 510Q2437 502 2437 483Q2437 462 2415 443Q2393 425 2367 425ZM2503 -46Q2459 -46 2433 -21Q2408 5 2408 57Q2408 99 2424 161Q2440 223 2464 289Q2456 291 2446 292Q2437 294 2429 298L2429 325Q2442 323 2452 322Q2463 321 2475 320Q2496 373 2520 423Q2545 473 2569 512Q2593 551 2615 574Q2637 597 2653 597Q2663 597 2671 590Q2679 583 2679 570Q2679 551 2658 513Q2638 476 2607 425Q2577 375 2549 317Q2557 317 2565 317Q2574 317 2582 317Q2622 317 2658 318Q2694 320 2731 324L2731 296Q2676 290 2630 287Q2585 284 2546 284Q2543 284 2539 284Q2536 284 2533 284Q2511 233 2495 180Q2480 127 2480 77Q2480 35 2493 17Q2506 0 2535 0Q2585 0 2637 46Q2689 92 2727 170L2741 160Q2716 102 2678 55Q2640 8 2595 -19Q2551 -46 2503 -46Z" fill="#ffffff" style=""></path></g></g></g></svg>